<svg xmlns="http://www.w3.org/2000/svg" width="540" height="200" fill="none"><path fill="#F24E1E" d="M243 32h30v18.581h-30z"/><path fill="#FF7262" d="M297 32h-21v18.581h21z"/><path fill="#F24E1E" d="M231 32h24v37.161h-24z"/><path fill="#FF7262" d="M309 32h-24v55.742h24z"/><path fill="#0ACF83" d="M243 115.613h24V128h-24z"/><path fill="#1ABCFE" d="M309 106.323h-39V128h39z"/><path fill="#0ACF83" d="M231 72.258h24V128h-24z"/><path fill="#1ABCFE" d="M309 90.839h-24v34.065h24z"/><path fill="#A259FF" d="M258 53.677h24v24.774h-24zM258 81.548h24v21.677h-24zM258 103.226h9v9.29h-9z"/><path fill="#0ACF83" d="M222 72.258h9v21.677h-9z"/><path fill="#FF7262" d="M309 66.064h9v21.677h-9z"/><path fill="#000" fill-opacity=".898" d="M210.295 152.663v-2.208h11.606v2.208h-4.496V165h-2.614v-12.337h-4.496Zm16.977 12.55c-1.094 0-2.039-.227-2.834-.682a4.613 4.613 0 0 1-1.825-1.946c-.427-.843-.64-1.835-.64-2.976 0-1.122.213-2.107.64-2.954.43-.852 1.032-1.515 1.804-1.989.771-.478 1.678-.717 2.72-.717.672 0 1.307.109 1.903.327a4.299 4.299 0 0 1 1.591.994c.464.45.829 1.023 1.094 1.719.265.691.398 1.515.398 2.471v.789h-8.942v-1.733h6.477a2.758 2.758 0 0 0-.32-1.314 2.312 2.312 0 0 0-.873-.916c-.369-.223-.8-.334-1.293-.334-.525 0-.987.128-1.385.383a2.645 2.645 0 0 0-.93.995 2.86 2.86 0 0 0-.334 1.342v1.513c0 .634.116 1.179.348 1.633.232.45.556.796.973 1.037.417.237.904.355 1.463.355.374 0 .713-.052 1.016-.156.303-.109.566-.268.788-.476.223-.208.391-.466.504-.774l2.401.27a3.753 3.753 0 0 1-.866 1.662c-.422.469-.962.833-1.62 1.094-.658.255-1.411.383-2.258.383Zm7.026-.213v-10.909h2.457v1.854h.128a2.893 2.893 0 0 1 1.129-1.463c.526-.356 1.153-.533 1.882-.533.739 0 1.361.18 1.868.54.511.355.871.84 1.08 1.456h.113a2.986 2.986 0 0 1 1.222-1.449c.577-.365 1.262-.547 2.052-.547 1.004 0 1.823.317 2.458.952.634.634.951 1.56.951 2.777V165h-2.578v-6.925c0-.677-.18-1.172-.539-1.484-.36-.317-.801-.476-1.321-.476-.621 0-1.106.194-1.456.582-.346.384-.519.883-.519 1.499V165h-2.521v-7.031c0-.564-.171-1.014-.512-1.35-.336-.336-.776-.504-1.321-.504-.369 0-.705.095-1.008.284a1.987 1.987 0 0 0-.725.789c-.179.336-.269.729-.269 1.178V165h-2.571Zm18.062 0v-14.545h5.455c1.117 0 2.055.208 2.812.625.763.416 1.338.989 1.726 1.718.393.725.59 1.549.59 2.472 0 .933-.197 1.761-.59 2.486-.393.724-.973 1.295-1.74 1.711-.767.412-1.711.618-2.834.618h-3.615v-2.166h3.26c.654 0 1.189-.114 1.605-.341.417-.227.725-.54.924-.937.203-.398.305-.855.305-1.371s-.102-.971-.305-1.364a2.074 2.074 0 0 0-.931-.916c-.416-.222-.954-.334-1.612-.334h-2.415V165h-2.635Zm15.702.22c-.691 0-1.314-.123-1.868-.369a3.049 3.049 0 0 1-1.307-1.108c-.317-.488-.476-1.089-.476-1.804 0-.616.114-1.125.341-1.527.227-.403.538-.724.931-.966a4.696 4.696 0 0 1 1.328-.547c.497-.128 1.011-.22 1.541-.277a59.848 59.848 0 0 0 1.555-.177c.398-.057.687-.142.867-.256.184-.118.277-.301.277-.547v-.043c0-.535-.159-.949-.476-1.242-.317-.294-.774-.441-1.371-.441-.63 0-1.129.138-1.498.412-.365.275-.611.599-.739.973l-2.401-.341c.19-.663.502-1.217.938-1.662.435-.45.968-.786 1.598-1.008.63-.228 1.326-.341 2.088-.341.525 0 1.049.061 1.57.185.52.123.996.326 1.427.61.431.28.777.661 1.037 1.144.265.483.398 1.086.398 1.811V165h-2.472v-1.499h-.085a3.139 3.139 0 0 1-.661.853 3.18 3.18 0 0 1-1.058.632c-.421.156-.916.234-1.484.234Zm.667-1.889c.517 0 .964-.102 1.343-.305.379-.209.67-.483.873-.824.209-.341.313-.713.313-1.115v-1.286c-.081.066-.218.128-.412.185a5.95 5.95 0 0 1-.639.149c-.237.043-.471.08-.703.114l-.604.085a4.5 4.5 0 0 0-1.03.255 1.716 1.716 0 0 0-.717.498c-.175.208-.263.478-.263.809 0 .474.173.831.518 1.073.346.241.786.362 1.321.362Zm11.726 1.861c-.857 0-1.624-.22-2.301-.661-.677-.44-1.212-1.079-1.605-1.917-.393-.838-.589-1.856-.589-3.054 0-1.212.198-2.235.596-3.069.403-.838.945-1.47 1.627-1.896a4.174 4.174 0 0 1 2.279-.646c.64 0 1.165.109 1.577.327.412.213.739.471.98.774.242.298.429.58.561.845h.107v-5.44h2.578V165h-2.528v-1.719h-.157a4.357 4.357 0 0 1-.575.845 3.152 3.152 0 0 1-.994.753c-.412.209-.931.313-1.556.313Zm.718-2.11c.544 0 1.008-.146 1.392-.44.383-.298.674-.713.873-1.243.199-.53.299-1.148.299-1.854 0-.705-.1-1.318-.299-1.839-.194-.521-.483-.926-.866-1.215-.379-.288-.845-.433-1.399-.433-.573 0-1.052.149-1.435.448-.384.298-.672.71-.867 1.235-.194.526-.291 1.127-.291 1.804 0 .682.097 1.291.291 1.826.199.53.491.949.874 1.257.388.303.864.454 1.428.454Z"/><path fill="#50AB64" d="M299.559 165h-4.489v-14.545h4.687c1.411 0 2.619.291 3.623.873 1.003.578 1.773 1.409 2.308 2.493.535 1.08.802 2.372.802 3.878 0 1.515-.269 2.819-.809 3.913a5.77 5.77 0 0 1-2.358 2.514c-1.032.583-2.287.874-3.764.874Zm-2.728-1.562h2.614c1.203 0 2.199-.233 2.99-.697a4.284 4.284 0 0 0 1.768-1.981c.389-.857.583-1.877.583-3.061 0-1.174-.192-2.185-.575-3.033-.384-.852-.957-1.505-1.719-1.96-.762-.459-1.712-.689-2.848-.689h-2.813v11.421Zm16.961 1.789c-1.052 0-1.958-.232-2.721-.696a4.677 4.677 0 0 1-1.754-1.96c-.407-.843-.611-1.823-.611-2.94 0-1.118.204-2.103.611-2.955.412-.857.985-1.524 1.719-2.003.739-.483 1.6-.724 2.585-.724.568 0 1.129.095 1.683.284a4.162 4.162 0 0 1 1.513.923c.455.422.817.98 1.087 1.676s.405 1.553.405 2.571v.711H309.9v-1.449h6.704c0-.616-.123-1.165-.369-1.648a2.782 2.782 0 0 0-1.037-1.143c-.445-.28-.971-.419-1.577-.419-.668 0-1.245.165-1.733.497a3.264 3.264 0 0 0-1.115 1.278 3.762 3.762 0 0 0-.391 1.69v.966c0 .824.143 1.523.427 2.096a3.068 3.068 0 0 0 1.2 1.299c.511.294 1.105.441 1.783.441.44 0 .838-.062 1.193-.185.36-.128.67-.317.93-.568.261-.256.462-.573.604-.952l1.619.455a3.584 3.584 0 0 1-.859 1.448c-.403.412-.9.734-1.492.966-.592.228-1.257.341-1.995.341Zm15.655-11.136L325.413 165h-1.705l-4.034-10.909h1.818l3.012 8.693h.113l3.012-8.693h1.818Z"/></svg>